<svg xmlns="http://www.w3.org/2000/svg" version="1.1" xmlns:xlink="http://www.w3.org/1999/xlink" xmlns:svgjs="http://svgjs.dev/svgjs" width="2000" height="2250" viewBox="0 0 2000 2250"><g transform="matrix(1,0,0,1,0.00014687500004129106,0)"><svg viewBox="0 0 320 360" data-background-color="#162836" preserveAspectRatio="xMidYMid meet" height="2250" width="2000" xmlns="http://www.w3.org/2000/svg" xmlns:xlink="http://www.w3.org/1999/xlink"><g id="tight-bounds" transform="matrix(1,0,0,1,0.000023499999997511622,0)"><svg viewBox="0 0 320 360" height="360" width="320"><g><svg></svg></g><g><svg viewBox="0 0 320 360" height="360" width="320"><g><path transform="translate(-74.99272,-51.79039) scale(4.65793,4.65793)" d="M20.6 59.9l0.8 1-0.4-1.3c-0.1-0.6-0.8 0.1-0.4 0.3M21.5 59.3c0.3 0.5 0.6 1 0.6 1.5 0 0.7 0.6 1 1.1 1.2-0.7-0.8-1.1-3-1.7-2.7M59.9 16.9c1.7 0 3.3-0.2 5.1 0.2 4.4 1.1 8.1 3.3 10.6 6.4l7 11.2c0.3 2.8 0.9 5.9 0.8 9.3 0.7 0 0.6-1 1.4-1.2-0.8 2-1.2 4.5-1.4 7.4-0.5-1.6 0-4 0.1-5.3-0.7 1.1-1.1 0.3-1.1-0.2 0.1-0.8-0.3-0.7-0.6-1-1.1-1-1.8-2.1-2.6-3.8 0.5-1.3 0.6-3.2-1-4.2-0.5-0.3-1.1-0.8-1.4-1.6-0.4-1.1-1.1-2.4-0.9-4.1 0.1-0.5-1.5 1.1-2.4 0.4-3.9-2.7-7.8-5.8-12.5-8.4-2.5 0-4.3-0.9-5.2-2-0.8-1-0.2-2.3 1-2.4 0.7 0 1.5-0.2 2.1 0.2 0.1-0.4 0.5-0.9 1-0.9M50 14.6l0.2 0.1c1 0.2 1.5 1.6 2.6 1.1 0 0.7 0.1 1.4-0.1 1.9-0.3 0.8-1.2 0.8-1.9 0.8-6.7-0.4-10.6 2.4-14.7 4.8-1.1 0.7-2.3 1.2-3.2 2.1-4.3 4-9 7.7-10.1 15.1l-0.9 8.2c-0.1 0.9-1.1 1.8-0.9 2.9l0.7 4.9c-0.7-0.7-1.1 0.2-0.9 0.6 0.1 0.3 0.5 1.3 1.1 0.4 0.8 1.5 1.6 4.4 2.7 5.7 3.4 4 7.8 7.6 11.4 11.2 0.9-0.2 1.6-0.2 1.8-0.8 0.3 0.6-0.3 1.2-0.8 1.3 1.6 1 3.4 1.9 5.8 2.1 3.1 0.2 6 0.7 8.7 1.4 1.4-0.4 2.8-0.6 4.3-0.7 0.5 0 0.8-0.8 1.4-1l0.1-1c0.6 0.9 0.5-0.3 0.1-0.9 0.7 0.6 0.9 1.1 1.2 1.5 0-0.3 0.8-1.4 0.8-0.1l0.2-1.3c0.3-0.2 0.4 1.1 0.7 0.2 0.3-0.9 0.9-0.2 1.5-0.5-0.2 0.4-0.1 1.2 0.6 0.7l0.8-0.7c0.5 1.2 1.3 0.7 1.7 0.5 4.4-2.8 8.8-6.1 13-9.4l-0.1 1.3 0.5-1.6c0.5 0.5 0.9 0.1 1.1-0.2 0.6-1 1.4-2 2.7-2.9-1.6 4.3-3.5 7.7-5.9 10.5l-1 1.2c0 0.7-0.2 1.6-1 1.7-0.4 0.1-1.2-0.2-1.8 0.4-0.3 0.4 0.7 1.2-0.1 0.6-0.7-0.5-1.4 0-2.2 0.2-0.6 0.2 0.4 0.8 0.6 1.2 0.2 0.4 0.4 0.8 0.3 1.3l-1.1-1.2c-1.3 0.7-2.1 2-3.2 3-0.5 0.4-0.3 1.1-0.3 1.7-0.7 0-1.5-0.2-1.9 0.2-0.3 0.4-0.2 1-0.2 1.6-1-0.1-1.1-1.6-2-1.3-0.9 0.2-1.9 0.3-2.7 0.8 0.6 1.2-1 0.5-0.8 0.7-1.5-0.9-2.8-1.6-4.4-1-3.4-1.1-7.6-0.6-10.7-0.2 0-0.5 0.1-1-0.1-1.1-0.2 0.5-0.8 0.3-0.7 0.3-1.9-1.3-3.8-2.1-5.8-3.2-1.8 0.2-3.5-0.7-4-1.2-1.4-1.3-3-0.6-4.3-0.9-2.8-0.7-3.8-3.6-4.1-5.6-0.2-1-1-1.4-1.3-1.3-1.3-4.2-3.3-8-4.9-11.9-0.4-1-0.3-2-0.3-3.1 0.5 0.2 1 0.1 0.9-0.6-0.5-3.3-1.7-5.8-3-8.2 0.7-3.4 0.8-7.4 2.4-10.4 1.4-2.7 4-4.1 5.8-6.4 0.6-0.8 0.6-1.9 1.2-2.6 2-2 4-4.1 6.2-5.9 1-0.8 2.2 0 3.7-0.3 0.5-1.8 2.5-3.4 4.4-2.9 0.8 0.2 2.4-1.9 2.9-2.1 0.8-0.3 0.4 0.8 0.4 1.5 1.9-1.5 4.5-2.3 6.9-3.2" fill="#000000" fill-rule="nonzero" stroke="none" stroke-width="1" stroke-linecap="butt" stroke-linejoin="miter" stroke-miterlimit="10" stroke-dasharray="" stroke-dashoffset="0" font-family="none" font-weight="none" font-size="none" text-anchor="none" style="mix-blend-mode: normal" data-fill-palette-color="tertiary"></path></g><g transform="matrix(1,0,0,1,64,152.42960466225165)"><svg viewBox="0 0 192 55.14079067549669" height="55.14079067549669" width="192"><g><svg viewBox="0 0 192 55.14079067549669" height="55.14079067549669" width="192"><g><svg viewBox="0 0 192 55.14079067549669" height="55.14079067549669" width="192"><g transform="matrix(1,0,0,1,0,33.32811328666036)"><svg viewBox="0 0 192 21.812677388836327" height="21.812677388836327" width="192"><g id="textblocktransform"><svg viewBox="0 0 192 21.812677388836327" height="21.812677388836327" width="192" id="textblock"><g><svg viewBox="0 0 192 21.812677388836327" height="21.812677388836327" width="192"><g transform="matrix(1,0,0,1,0,0)"><svg width="192" viewBox="7.08 -34.69 309.64000000000004 35.18" height="21.812677388836327" data-palette-color="#cf7650"><path d="M7.08 0L7.08-34.69 12.94-34.69 24.07-13.65 35.38-34.69 40.87-34.69 40.87 0 36.72 0 36.72-28.74 26.05-9.94 21.9-9.94 11.23-28.74 11.23 0 7.08 0ZM58.37-24.58L58.37-24.58Q61.06-24.58 62.92-23.96 64.79-23.34 65.81-22.14 66.82-20.95 67.26-19.48 67.7-18.02 67.7-16.11L67.7-16.11 67.7 0 64.87 0 63.94-2.2Q60.98 0.49 57.15 0.49L57.15 0.49Q53.73 0.49 51.36-1.57 49-3.64 49-6.4L49-6.4Q49-7.86 49.53-9.03 50.07-10.21 51.08-10.99 52.1-11.77 53.39-12.32 54.69-12.87 56.41-13.16 58.13-13.45 59.86-13.57 61.59-13.7 63.67-13.7L63.67-13.7 63.67-15.6Q63.67-16.43 63.61-17.04 63.55-17.65 63.21-18.51 62.86-19.36 62.28-19.91 61.69-20.46 60.52-20.86 59.35-21.26 57.74-21.26L57.74-21.26Q55.25-21.26 51.29-20.17L51.29-20.17 50.53-23.1Q54.54-24.58 58.37-24.58ZM63.67-5.13L63.67-10.67 62.18-10.67Q60.79-10.67 59.76-10.62 58.74-10.57 57.36-10.34 55.98-10.11 55.1-9.69 54.22-9.28 53.6-8.48 52.98-7.69 52.98-6.59L52.98-6.59Q52.98-5.05 54.53-3.86 56.08-2.66 58.23-2.66L58.23-2.66Q61.37-2.66 63.67-5.13L63.67-5.13ZM79.29-24.12L80.05-22.31Q83.1-24.58 86.79-24.58L86.79-24.58Q89.33-24.58 91.4-23.63L91.4-23.63 90.18-20.43Q88.28-21.17 86.23-21.17L86.23-21.17Q83.17-21.17 80.49-19.48L80.49-19.48 80.49 0 76.48 0 76.48-24.12 79.29-24.12ZM108.29-3.15L108.85-0.42Q105.31 0.49 103.34 0.49 101.36 0.49 99.99-0.15 98.63-0.78 97.92-1.95 97.21-3.13 96.9-4.48 96.6-5.83 96.6-7.59L96.6-7.59 96.6-20.97 93.35-20.97 93.35-24.12 96.6-24.12 96.6-31.03 100.6-31.03 100.6-24.12 107.95-24.12 107.95-20.97 100.6-20.97 100.6-7.64Q100.6-2.64 104.56-2.64L104.56-2.64Q105.27-2.64 108.29-3.15L108.29-3.15ZM114.59-30.08L114.59-34.69 119.33-34.69 119.33-30.08 114.59-30.08ZM114.96 0L114.96-24.12 118.96-24.12 118.96 0 114.96 0ZM127.75 0L127.75-24.12 130.55-24.12 131.43-22.07Q136.1-24.61 139.93-24.61L139.93-24.61Q141.91-24.61 143.37-23.99 144.84-23.36 145.64-22.42 146.45-21.48 146.92-20.06 147.4-18.63 147.53-17.33 147.67-16.04 147.67-14.38L147.67-14.38 147.67 0 143.66 0 143.66-14.65Q143.66-21 138.2-21L138.2-21Q135.36-21 131.75-19.12L131.75-19.12 131.75 0 127.75 0ZM172.81 0L172.81-34.69 178.06-34.69 196.96-5.66 196.96-34.69 201.11-34.69 201.11 0 195.86 0 176.96-29.08 176.96 0 172.81 0ZM222.88-3.15L223.44-0.42Q219.9 0.49 217.92 0.49 215.95 0.49 214.58-0.15 213.21-0.78 212.5-1.95 211.8-3.13 211.49-4.48 211.19-5.83 211.19-7.59L211.19-7.59 211.19-20.97 207.94-20.97 207.94-24.12 211.19-24.12 211.19-31.03 215.19-31.03 215.19-24.12 222.54-24.12 222.54-20.97 215.19-20.97 215.19-7.64Q215.19-2.64 219.15-2.64L219.15-2.64Q219.85-2.64 222.88-3.15L222.88-3.15ZM245.49-4.98L245.49-24.12 249.49-24.12 249.49 0 246.68 0 245.83-2.03Q241.21 0.49 237.31 0.49L237.31 0.49Q235.33 0.49 233.86-0.13 232.4-0.76 231.59-1.68 230.79-2.61 230.3-4.04 229.81-5.47 229.68-6.76 229.54-8.06 229.54-9.72L229.54-9.72 229.54-24.12 233.55-24.12 233.55-9.42Q233.55-3.1 239.04-3.1L239.04-3.1Q241.87-3.1 245.49-4.98L245.49-4.98ZM263.92 0L255.35-24.12 259.62-24.12 266.16-3.88 272.36-24.12 276.29-24.12 282.74-3.91 289.28-24.12 293.55-24.12 284.74 0 280.71 0 274.29-19.56 267.94 0 263.92 0ZM307.39-24.58L307.39-24.58Q310.08-24.58 311.95-23.96 313.82-23.34 314.83-22.14 315.84-20.95 316.28-19.48 316.72-18.02 316.72-16.11L316.72-16.11 316.72 0 313.89 0 312.96-2.2Q310.01 0.49 306.17 0.49L306.17 0.49Q302.76 0.49 300.39-1.57 298.02-3.64 298.02-6.4L298.02-6.4Q298.02-7.86 298.56-9.03 299.09-10.21 300.11-10.99 301.12-11.77 302.41-12.32 303.71-12.87 305.43-13.16 307.15-13.45 308.88-13.57 310.62-13.7 312.69-13.7L312.69-13.7 312.69-15.6Q312.69-16.43 312.63-17.04 312.57-17.65 312.23-18.51 311.89-19.36 311.3-19.91 310.71-20.46 309.54-20.86 308.37-21.26 306.76-21.26L306.76-21.26Q304.27-21.26 300.31-20.17L300.31-20.17 299.56-23.1Q303.56-24.58 307.39-24.58ZM312.69-5.13L312.69-10.67 311.2-10.67Q309.81-10.67 308.79-10.62 307.76-10.57 306.38-10.34 305-10.11 304.12-9.69 303.24-9.28 302.62-8.48 302-7.69 302-6.59L302-6.59Q302-5.05 303.55-3.86 305.1-2.66 307.25-2.66L307.25-2.66Q310.4-2.66 312.69-5.13L312.69-5.13Z" opacity="1" transform="matrix(1,0,0,1,0,0)" fill="#000000" class="wordmark-text-0" data-fill-palette-color="primary" id="text-0"></path></svg></g></svg></g></svg></g></svg></g><g transform="matrix(1,0,0,1,80.02047324093692,0)"><svg viewBox="0 0 31.95905351812616 30.145120151371806" height="30.145120151371806" width="31.95905351812616"><g><svg xmlns="http://www.w3.org/2000/svg" xmlns:xlink="http://www.w3.org/1999/xlink" version="1.1" x="0" y="0" viewBox="12.208000000000016 14.352999999999994 75.58399999999999 71.294" enable-background="new 0 0 100 100" xml:space="preserve" height="30.145120151371806" width="31.95905351812616" class="icon-icon-0" data-fill-palette-color="accent" id="icon-0"><path fill="#000000" d="M81.653 48.936c-3.044 0-5.571 2.229-6.051 5.139h-2.02c-0.909 0-1.762-0.401-2.341-1.103l-3.271-3.959c-1.028-1.243-2.543-1.957-4.156-1.957h-2.987v-7.824c0-2.716-2.21-4.926-4.926-4.926h-4.839v-1.142c0-0.582 0.227-1.131 0.638-1.544l3.773-3.786c0.407-0.408 0.972-0.643 1.549-0.643h5.644c0.48 2.91 3.006 5.139 6.051 5.139 3.385 0 6.139-2.754 6.139-6.139 0-3.386-2.754-6.14-6.139-6.14-3.044 0-5.571 2.229-6.051 5.14h-5.644c-1.104 0-2.186 0.448-2.965 1.23l-3.774 3.787c-0.787 0.791-1.221 1.841-1.221 2.955v1.142h-4.163v-3.443c0-1.529-0.595-2.968-1.674-4.051l-5.611-5.63c-1.068-1.072-2.55-1.688-4.064-1.688h-9.152c-0.48-2.911-3.006-5.14-6.051-5.14-3.385 0-6.139 2.754-6.139 6.14 0 3.385 2.754 6.139 6.139 6.139 3.044 0 5.571-2.229 6.051-5.139h9.152c0.986 0 1.952 0.4 2.648 1.1l5.611 5.63c0.703 0.705 1.09 1.643 1.09 2.639v3.443h-5.296c-2.716 0-4.925 2.21-4.925 4.926v3.166h-2.955c-1.367 0-2.677 0.507-3.688 1.426l-5.41 4.92c-1.14 1.037-1.794 2.515-1.794 4.056v11.517c-3.072 0.334-5.472 2.942-5.472 6.102 0 3.385 2.754 6.139 6.14 6.139 3.385 0 6.139-2.754 6.139-6.139 0-2.928-2.061-5.379-4.807-5.99V52.799c0-0.979 0.415-1.917 1.14-2.575l5.41-4.921c0.642-0.584 1.474-0.905 2.342-0.905h2.955v13.132c0 2.716 2.209 4.925 4.925 4.925h6.753v11.002c-2.911 0.48-5.14 3.006-5.14 6.05 0 3.386 2.754 6.14 6.14 6.14s6.14-2.754 6.14-6.14c0-3.044-2.229-5.57-5.14-6.05V62.454h9.545c2.704 0 4.902-2.19 4.922-4.889 0.086 0.024 0.17 0.053 0.263 0.053h1.427c0.706 0 1.383 0.301 1.863 0.832l6.198 6.719c-0.958 1.083-1.545 2.502-1.545 4.058 0 3.386 2.754 6.14 6.14 6.14 3.385 0 6.139-2.754 6.139-6.14 0-3.385-2.754-6.139-6.139-6.139-1.107 0-2.144 0.299-3.042 0.814l-6.273-6.801c-0.854-0.942-2.07-1.483-3.341-1.483h-1.427c-0.092 0-0.175 0.029-0.26 0.052v-6.615h2.987c1.015 0 1.968 0.449 2.615 1.231l3.271 3.958c0.96 1.162 2.375 1.829 3.883 1.829h2.02c0.48 2.911 3.006 5.14 6.051 5.14 3.385 0 6.139-2.754 6.139-6.14C87.792 51.689 85.038 48.936 81.653 48.936zM68.717 22.052c2.282 0 4.139 1.857 4.139 4.14s-1.856 4.139-4.139 4.139c-2.252 0-4.083-1.81-4.131-4.052 0.003-0.03 0.018-0.056 0.018-0.087s-0.015-0.057-0.018-0.087C64.634 23.863 66.464 22.052 68.717 22.052zM18.347 24.633c-2.282 0-4.139-1.856-4.139-4.139s1.856-4.14 4.139-4.14 4.14 1.857 4.14 4.14S20.629 24.633 18.347 24.633zM23.639 70.417c0 2.282-1.856 4.139-4.139 4.139s-4.14-1.856-4.14-4.139 1.857-4.14 4.14-4.14S23.639 68.135 23.639 70.417zM49.496 79.506c0 2.282-1.857 4.14-4.14 4.14s-4.14-1.857-4.14-4.14 1.857-4.139 4.14-4.139S49.496 77.224 49.496 79.506zM79.309 69.228c0 2.282-1.856 4.14-4.139 4.14s-4.14-1.857-4.14-4.14c0-1.187 0.51-2.252 1.313-3.007 0.133-0.043 0.26-0.107 0.369-0.208 0.072-0.066 0.116-0.147 0.164-0.227 0.657-0.439 1.445-0.697 2.293-0.697C77.452 65.089 79.309 66.945 79.309 69.228zM58.827 57.529c0 1.612-1.313 2.925-2.926 2.925H37.604c-1.612 0-2.925-1.313-2.925-2.925V39.231c0-1.613 1.313-2.926 2.925-2.926h18.298c1.613 0 2.926 1.313 2.926 2.926V57.529zM81.653 59.214c-2.282 0-4.14-1.857-4.14-4.14s1.857-4.139 4.14-4.139 4.139 1.856 4.139 4.139S83.936 59.214 81.653 59.214z" data-fill-palette-color="accent"></path><rect x="38.961" y="40.639" fill="#000000" width="3" height="3" data-fill-palette-color="accent"></rect><rect x="45.215" y="40.639" fill="#000000" width="3" height="3" data-fill-palette-color="accent"></rect><rect x="45.215" y="46.88" fill="#000000" width="3" height="3" data-fill-palette-color="accent"></rect><rect x="51.544" y="46.88" fill="#000000" width="3" height="3" data-fill-palette-color="accent"></rect><rect x="38.961" y="53.047" fill="#000000" width="3" height="3" data-fill-palette-color="accent"></rect><rect x="51.544" y="53.047" fill="#000000" width="3" height="3" data-fill-palette-color="accent"></rect></svg></g></svg></g><g></g></svg></g></svg></g></svg></g></svg></g><defs></defs></svg><rect width="320" height="360" fill="none" stroke="none" visibility="hidden"></rect></g></svg></g></svg>